<?xml version="1.0" encoding="UTF-8"?>
<svg id="Isolation_Mode" data-name="Isolation Mode" xmlns="http://www.w3.org/2000/svg" xmlns:xlink="http://www.w3.org/1999/xlink" viewBox="0 0 242.4 242.4">
  <defs>
    <style>
      .cls-1 {
        fill: none;
      }

      .cls-2 {
        clip-path: url(#clippath);
      }

      .cls-3 {
        fill: #ff9f00;
      }

      .cls-4, .cls-5 {
        fill: #fff;
      }

      .cls-5 {
        fill-rule: evenodd;
      }
    </style>
    <clipPath id="clippath">
      <path class="cls-1" d="m121.2,0h0c66.93,0,121.2,54.26,121.2,121.2h0c0,66.93-54.26,121.2-121.2,121.2h0C54.26,242.4,0,188.13,0,121.2h0C0,54.26,54.26,0,121.2,0Z"/>
    </clipPath>
  </defs>
  <g class="cls-2">
    <g>
      <path class="cls-3" d="m121.2,0h0c66.93,0,121.2,54.26,121.2,121.2h0c0,66.93-54.26,121.2-121.2,121.2h0C54.26,242.4,0,188.13,0,121.2h0C0,54.26,54.26,0,121.2,0Z"/>
      <path class="cls-5" d="m217.38,168.34l-16.99,24.96-28.27-2.38-7.07,4.62-9.19,26.82-29.66,5.63-18.32-21.68-8.28-1.76-25.44,12.49-24.95-16.98,2.38-28.27-4.63-7.08-26.82-9.2-5.63-29.66,21.69-18.32,1.76-8.28-12.49-25.44,16.98-24.94,28.27,2.39,7.07-4.62,9.16-26.83,29.67-5.63,18.32,21.69,8.28,1.76,25.44-12.49,24.97,16.97-2.38,28.27,4.62,7.07,26.84,9.16,5.63,29.67-21.69,18.32-1.76,8.3,12.49,25.44h0Zm-62.49-53.22c3.46,18.23-8.51,35.81-26.74,39.28-18.23,3.46-35.81-8.51-39.28-26.74-3.46-18.23,8.51-35.82,26.74-39.28,18.23-3.46,35.81,8.51,39.28,26.74h0Z"/>
      <g>
        <path class="cls-3" d="m122.9,182.16h0c23.13-2.92,40.25-12.26,46.68-30.02,2.19-5.93,2.43-12.42,1.71-21.4-.11-1.47-.36-2.92-.74-4.34-.76-2.87-1.66-5.43-2.8-7.77-.82-1.91-1.89-4.03-3.29-6.21.07-.53.13-1.06.17-1.57v-.05c.18-2.72.25-5.22.14-7.58.19-2.11.35-4.01.5-5.7.21-2.37.38-4.33.52-5.88v-.09l.02-.11.03-.34c.28-3.81.47-6.78.58-9.03.39-7.38-1.02-13.39-3.65-18.19-2.62-4.77-6.21-7.9-9.48-9.89h0c-5.95-3.62-12.94-5.1-19.73-3.94-2.47.39-4.83,1.05-7.11,2.02-.73.3-1.44.63-2.14,1-2.17-.32-4.41-.48-6.69-.48-7.3,0-14.35,1.68-20.87,4.93h-.02l-.02.02c-4.6,2.32-10.61,6.9-14.51,15.62-.82,1.79-1.4,3.7-2.58,7.56l-.06.21c-3.15,10.08-4.1,15-4.1,19.42v7.92c0,2.64.29,5.24.86,7.77-2.55,3.78-4.11,8.03-4.71,12.26v.04c-.15,1.09-.24,2.24-.24,3.44,0,2.01.25,3.83.6,5.43-.03.69-.06,1.35-.07,1.99-.26,1.47-.39,2.96-.39,4.46v7.52c0,1.44.13,2.84.37,4.21h0c-.01.26-.04.58-.06,1.02-.11,2.02-.17,3.59-.17,4.88,0,9.72,3.24,17.56,8.7,22.98,5.37,5.33,12.39,7.83,19.1,7.83s12.74-2.24,18.74-6.07h.02c1.69-1.1,3.24-2.38,4.61-3.82h.07l.02-.05Z"/>
        <path class="cls-4" d="m99.46,199.65c-9.11,0-18.02-3.66-24.44-10.03-7.15-7.1-10.93-16.91-10.93-28.35,0-1.4.06-3.08.18-5.29,0-.08,0-.16.01-.24-.22-1.53-.33-3.06-.33-4.58v-7.52c0-1.73.14-3.47.4-5.18,0-.22.02-.45.02-.67-.38-2-.57-4.03-.57-6.03,0-1.29.08-2.61.24-3.93v-.04l.07-.56c.62-4.43,2.08-8.75,4.24-12.67-.31-2.08-.46-4.19-.46-6.3v-7.92c0-5.53,1.16-11.21,4.44-21.69l.09-.28c1.2-3.95,1.87-6.13,2.89-8.35,4.87-10.87,12.47-16.47,18-19.26l.04-.02c7.64-3.81,15.8-5.73,24.27-5.73,1.83,0,3.65.09,5.44.27.15-.06.3-.13.45-.19,2.78-1.19,5.67-2.01,8.83-2.52,7.75-1.31,15.83.06,22.97,3.84h.12l1.57.95c.08.05.15.09.23.14l1.9,1.15.07.13c4.27,3,7.71,6.84,10.23,11.44,3.48,6.36,5.02,13.84,4.57,22.24-.11,2.24-.3,5.25-.59,9.18l-.08.87c-.09.95-.18,2.05-.29,3.3l-.21,2.37c-.09.97-.18,2.01-.28,3.12l-.18,2.09c.08,2.17.04,4.5-.13,7.23.89,1.57,1.7,3.2,2.42,4.86,1.29,2.68,2.34,5.62,3.23,8.98.49,1.84.82,3.76.97,5.68.64,8,.83,16.53-2.15,24.59-8.5,23.44-31.57,31.8-50.38,34.6-1.03.91-2.11,1.75-3.24,2.53l-1.67,1.71h-1.07c-6.97,4.09-13.82,6.08-20.88,6.08h-.01Zm-20.29-70.58l-.04.29c-.11.82-.17,1.63-.17,2.4,0,1.25.14,2.53.42,3.79l.22.98-.05,1.01c-.03.62-.05,1.22-.07,1.8v.57l-.11.57c-.18,1.04-.27,2.1-.27,3.16v7.52c0,.96.09,1.94.26,2.92l.11.64v1.07l-.04.41c-.01.17-.02.36-.03.59-.11,1.94-.15,3.36-.15,4.48,0,7.32,2.23,13.41,6.46,17.6,3.6,3.58,8.62,5.63,13.76,5.63,4.34,0,8.56-1.27,13.18-3.97l-4.02-5.93h13.79c21.58-2.84,35.06-11.26,40.05-25.04l.02-.05c1.61-4.35,1.97-9.45,1.27-18.16-.08-1.02-.25-2.02-.51-2.99-.66-2.5-1.41-4.59-2.3-6.41l-.15-.34c-.76-1.78-1.66-3.49-2.69-5.08l-1.52-2.36.39-2.78c.04-.3.08-.61.1-.91v-.18c.19-2.67.23-4.8.14-6.72l-.02-.51.27-3.08c.1-1.12.19-2.16.28-3.14l.21-2.36c.11-1.3.22-2.44.31-3.42,0-.16.03-.33.05-.5v-.07c.28-3.76.47-6.65.57-8.8.3-5.58-.62-10.34-2.73-14.18-1.29-2.35-3.02-4.35-5.15-5.96h-2.42l-1.03-2.1c-4.04-1.97-8.48-2.67-12.72-1.95h-.07c-1.94.32-3.68.81-5.32,1.51l-.06.03c-.56.23-1.09.48-1.59.74l-2.16,1.12-2.41-.35c-1.81-.26-3.69-.4-5.6-.4-6.11,0-11.99,1.39-17.49,4.13-3.34,1.69-7.96,5.13-11.01,11.95l-.03.07c-.6,1.3-1.12,3.03-2.17,6.47l-.12.38c-3.13,9.99-3.75,13.98-3.75,17.17v7.92c0,2.07.23,4.12.67,6.11l.72,3.19-1.83,2.71c-1.77,2.63-2.96,5.67-3.45,8.81h0Zm94.13-36.36v.04-.04Z"/>
      </g>
      <path class="cls-4" d="m146.73,132.71c.45,5.65.36,9.29-.28,10.93-2.64,7.47-11.52,12.16-26.64,14.07-5.1.64-10.2-1.78-15.3-7.24,0,.82.18,3.28.55,7.38.28,3.01.22,5.46-.14,7.38-2.28,1.46-4.1,2.19-5.46,2.19-2.1,0-3.14-2.05-3.14-6.15,0-.73.05-1.89.14-3.48s.14-2.71.14-3.35c0-1.55-.14-2.64-.41-3.28v-7.52c0-.18.05-.39.14-.62.09-.22.18-.43.28-.62-.09-1.27-.05-3.23.14-5.87.18-1.64.18-2.69,0-3.14-.45-.91-.68-1.46-.68-1.64.36-2.55,2.23-3.82,5.6-3.82,2.19,0,3.5.78,3.96,2.32,0,1.46.18,3.6.55,6.42.55,3.28,2.28,6.56,5.19,9.83,3.19,3.74,6.23,5.46,9.15,5.19,3.28-.36,6.56-1.14,9.83-2.32,4.55-1.64,7.29-3.55,8.19-5.74.63-1.64.95-3.37.95-5.19,0-5.55-2.05-9.7-6.15-12.43-1.82-1.18-5.19-2.14-10.11-2.87-2.82-.36-4.55-.55-5.19-.55-4.37.09-8.45-1.32-12.23-4.23-3.78-2.92-5.67-6.28-5.67-10.11v-7.92c0-1.73,1-5.78,3.01-12.16.91-3.01,1.41-4.6,1.5-4.78.82-1.91,1.86-3.19,3.14-3.82,3.09-1.55,6.37-2.32,9.83-2.32,6.74,0,11.7,2.73,14.89,8.19.28.28.73.68,1.37,1.23.09-1.27.28-3.23.55-5.87-.09-1.18-.18-2.32-.28-3.42,0-1.27.63-2.14,1.91-2.59.36-.18.86-.32,1.5-.41.91-.18,1.89.05,2.94.68s1.48,2.55,1.29,5.74c-.09,2-.28,4.82-.55,8.47-.28,3.01-.68,7.61-1.23,13.8.18,1.46.18,3.46,0,6.01-.45,1.73-1.82,2.59-4.1,2.59-1.18,0-2.32-.32-3.42-.95-.55-1.73-.82-2.46-.82-2.19.18-2.46-.32-5.74-1.5-9.83-1-2.09-2.39-5.08-4.17-8.95s-4.12-5.95-7.03-6.22c-3.65-.28-6.01.95-7.1,3.69-.36,1.18-.87,2.92-1.5,5.19-1.09,3.37-1.78,6.6-2.05,9.7-.09,1.01-.18,1.41-.28,1.23.28,1.82.59,3.65.95,5.46.45,2.28,1.57,4.01,3.35,5.19s5.17,1.91,10.18,2.19c12.29.73,19.9,5.01,22.81,12.84.45.73.91,1.96,1.36,3.69h.04Z"/>
    </g>
  </g>
  <path class="cls-1" d="m121.2.23h0c66.81,0,120.97,54.16,120.97,120.97h0c0,66.81-54.16,120.97-120.97,120.97h0c-66.81,0-120.97-54.16-120.97-120.97H.23C.23,54.39,54.39.23,121.2.23Z"/>
</svg>