<svg width="1000" height="1000" viewBox="0 0 1000 1000" fill="none" xmlns="http://www.w3.org/2000/svg">
<g clip-path="url(#clip0_2_2)">
<rect width="1000" height="1000" rx="500" fill="#FF9F00"/>
<path fill-rule="evenodd" clip-rule="evenodd" d="M896.824 694.464L826.723 797.444L710.095 787.629L680.899 806.711L642.999 917.349L520.652 940.591L445.071 851.157L410.905 843.9L305.938 895.415L203.008 825.348L212.823 708.72L193.737 679.518L83.0935 641.576L59.8525 519.232L149.327 443.645L156.583 409.483L105.069 304.516L175.109 201.624L291.746 211.482L320.916 192.417L358.715 81.7077L481.094 58.46L556.681 147.935L590.843 155.191L695.793 103.685L798.821 173.709L789.004 290.356L808.074 319.533L918.783 357.332L942.031 479.711L852.565 555.291L845.311 589.527L896.824 694.464ZM639.033 474.96C653.32 550.167 603.934 622.716 528.727 637.002C453.52 651.289 380.971 601.903 366.685 526.696C352.398 451.489 401.784 378.94 476.991 364.654C552.198 350.367 624.747 399.753 639.033 474.96Z" fill="white"/>
<path d="M505.199 736.875L505.211 736.874L505.222 736.872C598.175 725.121 662.036 688.329 685.802 622.575C693.729 601.188 694.939 577.042 692.01 540.516C691.611 535.353 690.736 530.264 689.39 525.262C686.409 513.96 682.926 504.253 678.658 495.552C674.978 486.868 669.928 477.103 662.976 467.129C663.717 463.477 664.202 459.821 664.467 456.213L664.471 456.162L664.474 456.112C665.236 444.82 665.478 434.791 665.001 425.55C665.808 416.453 666.529 408.288 667.167 401.052C668.042 391.129 668.763 382.954 669.344 376.522C669.365 376.355 669.381 376.207 669.394 376.08C669.406 375.964 669.417 375.852 669.426 375.755L669.473 375.474L669.528 374.721C670.685 359.048 671.463 346.934 671.921 337.786C673.437 309.71 668.036 287.686 658.663 270.616C649.314 253.59 636.555 242.473 624.825 235.319L624.809 235.31L624.794 235.301C603.068 222.115 577.77 216.875 553.451 221.017C544.251 222.485 535.668 224.867 527.475 228.381C523.363 230.098 519.373 232.054 515.515 234.276C505.771 232.573 495.688 231.689 485.278 231.689C457.456 231.689 430.656 238.059 405.774 250.465L405.738 250.483L405.703 250.501C389.164 258.847 367.074 275.518 352.622 307.873C349.685 314.25 347.583 321.111 342.4 338.144C329.449 379.515 326.161 398.038 326.161 413.935V446.61C326.161 458.606 327.783 470.387 330.919 481.729C319.46 496.634 312.567 514.007 310.115 531.298L310.11 531.335L310.105 531.371C309.567 535.289 309.247 539.375 309.247 543.545C309.247 551.411 310.327 558.491 311.817 564.637C311.604 568.534 311.461 572.213 311.389 575.645C310.349 581.253 309.823 586.895 309.823 592.558V623.567C309.823 629.17 310.378 634.67 311.414 640.052C311.379 640.68 311.337 641.378 311.288 642.184C311.224 643.238 311.149 644.474 311.066 645.973C310.61 654.187 310.4 660.357 310.4 665.276C310.4 702.004 322.565 730.379 341.916 749.603C361.076 768.637 386.219 777.622 410.317 777.622C433.799 777.622 456.646 769.638 479.686 754.906L479.704 754.895L479.721 754.884C487.217 750.065 493.889 744.189 499.518 737.478C501.407 737.314 503.3 737.113 505.199 736.875Z" fill="#F9A83A" stroke="white" stroke-width="33"/>
<path d="M605.316 547.479C607.193 570.781 606.809 585.799 604.188 592.564C593.284 623.375 556.649 642.717 494.298 650.611C473.251 653.244 452.218 643.288 431.171 620.742C431.171 624.125 431.921 634.267 433.433 651.181C434.56 663.578 434.368 673.72 432.869 681.607C423.47 687.617 415.961 690.628 410.323 690.628C401.674 690.628 397.362 682.177 397.362 665.263C397.362 662.258 397.548 657.472 397.926 650.899C398.298 644.332 398.49 639.725 398.49 637.092C398.49 630.704 397.926 626.2 396.798 623.567V592.571C396.798 591.821 396.984 590.976 397.362 590.034C397.734 589.098 398.112 588.253 398.49 587.497C398.112 582.243 398.298 574.164 399.054 563.266C399.803 556.5 399.803 552.188 399.054 550.305C397.17 546.557 396.241 544.302 396.241 543.546C397.734 533.025 405.448 527.765 419.344 527.765C428.358 527.765 433.804 530.963 435.688 537.344C435.688 543.353 436.438 552.188 437.943 563.83C440.205 577.355 447.336 590.886 459.361 604.404C472.508 619.813 485.091 626.95 497.123 625.822C510.648 624.33 524.173 621.133 537.698 616.244C556.483 609.479 567.753 601.592 571.513 592.577C574.134 585.812 575.454 578.681 575.454 571.159C575.454 548.248 567.003 531.148 550.095 519.879C542.574 514.997 528.677 511.05 508.387 508.039C496.739 506.546 489.595 505.784 486.975 505.784C468.94 506.162 452.122 500.338 436.534 488.312C420.939 476.293 413.149 462.383 413.149 446.603V413.922C413.149 406.791 417.281 390.069 425.552 363.769C429.3 351.365 431.37 344.798 431.754 344.042C435.131 336.156 439.449 330.896 444.709 328.262C457.478 321.881 471.003 318.684 485.283 318.684C513.083 318.684 533.559 329.954 546.712 352.493C547.84 353.621 549.717 355.312 552.35 357.567C552.722 352.314 553.478 344.235 554.606 333.337C554.228 328.455 553.85 323.758 553.478 319.248C553.478 313.994 556.098 310.426 561.365 308.542C562.864 307.792 564.934 307.229 567.567 306.851C571.321 306.101 575.364 307.043 579.688 309.663C584 312.297 585.788 320.19 585.038 333.33C584.66 341.595 583.911 353.243 582.783 368.267C581.655 380.67 579.97 399.641 577.709 425.192C578.458 431.201 578.458 439.473 577.709 449.986C575.825 457.123 570.187 460.692 560.801 460.692C555.913 460.692 551.223 459.379 546.712 456.752C544.457 449.621 543.336 446.603 543.336 447.731C544.079 437.589 542.016 424.064 537.134 407.156C532.995 398.52 527.274 386.219 519.945 370.246C512.615 354.281 502.941 345.727 490.922 344.6C475.891 343.472 466.127 348.546 461.617 359.816C460.117 364.705 458.042 371.848 455.421 381.234C450.911 395.137 448.092 408.476 446.964 421.245C446.586 425.384 446.208 427.075 445.836 426.319C446.964 433.841 448.277 441.35 449.783 448.865C451.66 458.257 456.267 465.401 463.59 470.277C470.919 475.165 484.905 478.164 505.574 479.291C556.291 482.309 587.659 499.966 599.684 532.27C601.555 535.281 603.432 540.349 605.316 547.479Z" fill="white"/>
</g>
<defs>
<clipPath id="clip0_2_2">
<rect width="1000" height="1000" rx="500" fill="white"/>
</clipPath>
</defs>
</svg>
