<?xml version="1.0" encoding="UTF-8"?>
<svg id="Layer_1" data-name="Layer 1" xmlns="http://www.w3.org/2000/svg" xmlns:xlink="http://www.w3.org/1999/xlink" viewBox="0 0 486.21 480.53">
  <defs>
    <style>
      .cls-1, .cls-2 {
        fill: none;
      }

      .cls-3 {
        clip-path: url(#clippath);
      }

      .cls-4 {
        fill: #f2f2f2;
      }

      .cls-5 {
        fill: #f99f1b;
      }

      .cls-6, .cls-7 {
        fill: #fff;
      }

      .cls-8 {
        fill: rgba(30, 30, 30, .38);
      }

      .cls-2 {
        stroke: #3e3e3e;
        stroke-linecap: round;
        stroke-linejoin: round;
        stroke-width: 2px;
      }

      .cls-9 {
        fill: #3e3e3e;
      }

      .cls-9, .cls-7 {
        fill-rule: evenodd;
      }

      .cls-10 {
        fill: rgba(1, 1, 1, .09);
      }
    </style>
    <clipPath id="clippath">
      <path class="cls-1" d="m54.42,31.78h0c11.26,0,20.4,9.13,20.4,20.4h0c0,11.26-9.13,20.4-20.4,20.4h0c-11.27,0-20.4-9.13-20.4-20.4h0c0-11.27,9.13-20.4,20.4-20.4Z"/>
    </clipPath>
  </defs>
  <g>
    <path class="cls-6" d="m486.21,15.92v464.61H0V15.92C0,7.13,7.12,0,15.91,0h454.39c8.79,0,15.91,7.13,15.91,15.92Z"/>
    <rect class="cls-10" x="22.98" y="22.99" width="373.06" height="61.88" rx="15.91" ry="15.91"/>
    <rect class="cls-1" x="37.12" y="33.6" width="40.67" height="40.67"/>
    <path class="cls-2" d="m363.85,62.7c5.53,0,10.02-4.49,10.02-10.02s-4.49-10.02-10.02-10.02-10.02,4.49-10.02,10.02,4.49,10.02,10.02,10.02Z"/>
    <path class="cls-2" d="m376.37,65.2l-5.45-5.45"/>
    <path class="cls-9" d="m455.48,49.74c-1.91-.41-3.06-2.38-2.45-4.25.92-2.82-2.07-5.33-4.69-3.93-1.73.92-3.88.13-4.61-1.68-1.11-2.75-5.01-2.75-6.13,0-.73,1.81-2.88,2.6-4.61,1.68-2.62-1.4-5.6,1.11-4.69,3.93.61,1.87-.53,3.84-2.45,4.25-2.9.62-3.58,4.46-1.06,6.03,1.66,1.04,2.06,3.29.85,4.83-1.83,2.34.12,5.72,3.06,5.31,1.94-.28,3.69,1.19,3.76,3.15.1,2.97,3.77,4.3,5.75,2.1,1.31-1.46,3.6-1.46,4.91,0,1.99,2.2,5.65.87,5.75-2.1.07-1.96,1.82-3.43,3.76-3.15,2.94.41,4.89-2.97,3.07-5.31-1.21-1.54-.81-3.79.85-4.83,2.51-1.57,1.84-5.41-1.07-6.03Zm-14.81,12.21c-3.58,0-6.49-2.91-6.49-6.49s2.91-6.48,6.49-6.48,6.48,2.9,6.48,6.48-2.9,6.49-6.48,6.49Z"/>
    <rect class="cls-4" x="37.12" y="150.29" width="411.96" height="123.76" rx="8.84" ry="8.84"/>
    <path class="cls-5" d="m361.56,198.03h42.43c10.25,0,18.56,8.31,18.56,18.56h0c0,10.25-8.31,18.56-18.56,18.56h-42.43c-10.25,0-18.56-8.31-18.56-18.56h0c0-10.25,8.31-18.56,18.56-18.56Z"/>
    <path class="cls-6" d="m363.33,203.33h0c7.32,0,13.26,5.94,13.26,13.26h0c0,7.32-5.94,13.26-13.26,13.26h0c-7.32,0-13.26-5.94-13.26-13.26h0c0-7.32,5.94-13.26,13.26-13.26Z"/>
    <path class="cls-8" d="m61.88,175.04h201.56c2.93,0,5.3,2.37,5.3,5.3h0c0,2.93-2.37,5.3-5.3,5.3H61.88c-2.93,0-5.3-2.37-5.3-5.3h0c0-2.93,2.37-5.3,5.3-5.3Z"/>
    <path class="cls-8" d="m61.88,206.87h146.75c2.93,0,5.3,2.37,5.3,5.3h0c0,2.93-2.37,5.3-5.3,5.3H61.88c-2.93,0-5.3-2.37-5.3-5.3h0c0-2.93,2.37-5.3,5.3-5.3Z"/>
    <path class="cls-8" d="m61.88,238.69h146.75c2.93,0,5.3,2.37,5.3,5.3h0c0,2.93-2.37,5.3-5.3,5.3H61.88c-2.93,0-5.3-2.37-5.3-5.3h0c0-2.93,2.37-5.3,5.3-5.3Z"/>
    <rect class="cls-4" x="37.12" y="309.41" width="411.96" height="123.76" rx="8.84" ry="8.84"/>
    <path class="cls-5" d="m361.56,357.15h42.43c10.25,0,18.56,8.31,18.56,18.56h0c0,10.25-8.31,18.56-18.56,18.56h-42.43c-10.25,0-18.56-8.31-18.56-18.56h0c0-10.25,8.31-18.56,18.56-18.56Z"/>
    <path class="cls-6" d="m363.33,362.46h0c7.32,0,13.26,5.94,13.26,13.26h0c0,7.32-5.94,13.26-13.26,13.26h0c-7.32,0-13.26-5.94-13.26-13.26h0c0-7.32,5.94-13.26,13.26-13.26Z"/>
    <path class="cls-8" d="m61.88,334.17h201.56c2.93,0,5.3,2.37,5.3,5.3h0c0,2.93-2.37,5.3-5.3,5.3H61.88c-2.93,0-5.3-2.37-5.3-5.3h0c0-2.93,2.37-5.3,5.3-5.3Z"/>
    <path class="cls-8" d="m61.88,365.99h146.75c2.93,0,5.3,2.37,5.3,5.3h0c0,2.93-2.37,5.3-5.3,5.3H61.88c-2.93,0-5.3-2.37-5.3-5.3h0c0-2.93,2.37-5.3,5.3-5.3Z"/>
    <path class="cls-8" d="m61.88,397.82h146.75c2.93,0,5.3,2.37,5.3,5.3h0c0,2.93-2.37,5.3-5.3,5.3H61.88c-2.93,0-5.3-2.37-5.3-5.3h0c0-2.93,2.37-5.3,5.3-5.3Z"/>
    <path class="cls-4" d="m449.08,477.38v3.15H37.12v-3.15c0-4.88,3.96-8.84,8.85-8.84h394.27c4.88,0,8.84,3.96,8.84,8.84Z"/>
  </g>
  <g>
    <g class="cls-3">
      <g>
        <path class="cls-5" d="m54.42,31.78h0c11.26,0,20.4,9.13,20.4,20.4h0c0,11.26-9.13,20.4-20.4,20.4h0c-11.27,0-20.4-9.13-20.4-20.4h0c0-11.27,9.13-20.4,20.4-20.4Z"/>
        <path class="cls-7" d="m70.61,60.11l-2.86,4.2-4.76-.4-1.19.78-1.55,4.51-4.99.95-3.08-3.65-1.39-.3-4.28,2.1-4.2-2.86.4-4.76-.78-1.19-4.51-1.55-.95-4.99,3.65-3.08.3-1.39-2.1-4.28,2.86-4.2,4.76.4,1.19-.78,1.54-4.52,4.99-.95,3.08,3.65,1.39.3,4.28-2.1,4.2,2.86-.4,4.76.78,1.19,4.52,1.54.95,4.99-3.65,3.08-.3,1.4,2.1,4.28h0Zm-10.52-8.96c.58,3.07-1.43,6.03-4.5,6.61-3.07.58-6.03-1.43-6.61-4.5-.58-3.07,1.43-6.03,4.5-6.61,3.07-.58,6.03,1.43,6.61,4.5h0Z"/>
        <g>
          <path class="cls-5" d="m54.71,62.44h0c3.89-.49,6.77-2.06,7.86-5.05.37-1,.41-2.09.29-3.6-.02-.25-.06-.49-.12-.73-.13-.48-.28-.91-.47-1.31-.14-.32-.32-.68-.55-1.05.01-.09.02-.18.03-.26h0c.03-.47.04-.89.02-1.28.03-.36.06-.67.08-.96.04-.4.06-.73.09-.99v-.03s0-.06,0-.06c.05-.64.08-1.14.1-1.52.07-1.24-.17-2.25-.61-3.06-.44-.8-1.05-1.33-1.6-1.66h0c-1-.61-2.18-.86-3.32-.66-.42.07-.81.18-1.2.34-.12.05-.24.11-.36.17-.37-.05-.74-.08-1.13-.08-1.23,0-2.41.28-3.51.83h0c-.77.39-1.79,1.16-2.44,2.63-.14.3-.24.62-.43,1.27v.04c-.54,1.7-.7,2.52-.7,3.27v1.33c0,.44.05.88.14,1.31-.43.64-.69,1.35-.79,2.06h0c-.03.19-.04.38-.04.59,0,.34.04.64.1.91,0,.12-.01.23-.01.33-.04.25-.07.5-.07.75v1.27c0,.24.02.48.06.71h0s0,.1-.01.17c-.02.34-.03.6-.03.82,0,1.64.55,2.96,1.46,3.87.9.9,2.09,1.32,3.21,1.32s2.14-.38,3.15-1.02h0c.28-.19.55-.4.78-.64h.02Z"/>
          <path class="cls-6" d="m50.77,65.38c-1.53,0-3.03-.62-4.11-1.69-1.2-1.19-1.84-2.85-1.84-4.77,0-.24.01-.52.03-.89,0-.01,0-.03,0-.04-.04-.26-.06-.51-.06-.77v-1.27c0-.29.02-.58.07-.87,0-.04,0-.08,0-.11-.06-.34-.1-.68-.1-1.01,0-.22.01-.44.04-.66h0s.01-.1.01-.1c.1-.75.35-1.47.71-2.13-.05-.35-.08-.71-.08-1.06v-1.33c0-.93.2-1.89.75-3.65l.02-.05c.2-.66.31-1.03.49-1.41.82-1.83,2.1-2.77,3.03-3.24h0c1.29-.64,2.66-.97,4.08-.97.31,0,.61.02.92.05.03-.01.05-.02.08-.03.47-.2.95-.34,1.49-.42,1.3-.22,2.66.01,3.87.65h.02l.26.16s.03.02.04.02l.32.19v.02c.73.5,1.31,1.15,1.73,1.93.59,1.07.84,2.33.77,3.74-.02.38-.05.88-.1,1.54v.15c-.03.16-.04.34-.06.56l-.04.4c-.02.16-.03.34-.05.53l-.03.35c.01.37,0,.76-.02,1.22.15.26.29.54.41.82.22.45.39.95.54,1.51.08.31.14.63.16.96.11,1.35.14,2.78-.36,4.14-1.43,3.94-5.31,5.35-8.48,5.82-.17.15-.36.29-.55.43l-.28.29h-.18c-1.17.69-2.33,1.02-3.51,1.02h0Zm-3.41-11.88v.05c-.03.14-.04.27-.04.4,0,.21.02.43.07.64l.04.16v.17c-.01.1-.02.21-.02.3v.1l-.02.1c-.03.18-.05.35-.05.53v1.27c0,.16.02.33.04.49l.02.11v.25s-.01.06-.01.1c-.02.33-.03.57-.03.75,0,1.23.38,2.26,1.09,2.96.61.6,1.45.95,2.32.95.73,0,1.44-.21,2.22-.67l-.68-1h2.32c3.63-.48,5.9-1.89,6.74-4.21h0c.27-.74.33-1.6.21-3.06-.01-.17-.04-.34-.09-.5-.11-.42-.24-.77-.39-1.08l-.03-.06c-.13-.3-.28-.59-.45-.85l-.26-.4.07-.47c0-.05.01-.1.02-.15v-.03c.03-.45.04-.81.02-1.13v-.09s.04-.52.04-.52c.02-.19.03-.36.05-.53l.04-.4c.02-.22.04-.41.05-.58,0-.03,0-.06,0-.08h0c.05-.64.08-1.13.1-1.49.05-.94-.1-1.74-.46-2.39-.22-.4-.51-.73-.87-1h-.41l-.17-.35c-.68-.33-1.43-.45-2.14-.33h-.01c-.33.05-.62.14-.9.25h-.01c-.09.04-.18.09-.27.13l-.36.19-.41-.06c-.3-.04-.62-.07-.94-.07-1.03,0-2.02.23-2.94.7-.56.28-1.34.86-1.85,2.01h0c-.1.23-.19.52-.37,1.1l-.02.06c-.53,1.68-.63,2.35-.63,2.89v1.33c0,.35.04.69.11,1.03l.12.54-.31.46c-.3.44-.5.95-.58,1.48h0Zm15.84-6.12h0s0,0,0,0Z"/>
        </g>
        <path class="cls-6" d="m58.72,54.11c.08.95.06,1.56-.05,1.84-.44,1.26-1.94,2.05-4.48,2.37-.86.11-1.72-.3-2.57-1.22,0,.14.03.55.09,1.24.05.51.04.92-.02,1.24-.38.25-.69.37-.92.37-.35,0-.53-.34-.53-1.03,0-.12,0-.32.02-.59s.02-.46.02-.56c0-.26-.02-.44-.07-.55v-1.27s0-.07.02-.1c.02-.04.03-.07.05-.1-.02-.21,0-.54.02-.99.03-.28.03-.45,0-.53-.08-.15-.11-.25-.11-.28.06-.43.38-.64.94-.64.37,0,.59.13.67.39,0,.25.03.61.09,1.08.09.55.38,1.1.87,1.65.54.63,1.05.92,1.54.87.55-.06,1.1-.19,1.65-.39.77-.28,1.23-.6,1.38-.97.11-.28.16-.57.16-.87,0-.93-.34-1.63-1.03-2.09-.31-.2-.87-.36-1.7-.48-.47-.06-.77-.09-.87-.09-.74.02-1.42-.22-2.06-.71-.64-.49-.95-1.06-.95-1.7v-1.33c0-.29.17-.97.51-2.05.15-.51.24-.77.25-.8.14-.32.31-.54.53-.64.52-.26,1.07-.39,1.65-.39,1.13,0,1.97.46,2.51,1.38.05.05.12.11.23.21.02-.21.05-.54.09-.99-.02-.2-.03-.39-.05-.58,0-.21.11-.36.32-.44.06-.03.14-.05.25-.07.15-.03.32,0,.49.11s.25.43.22.97c-.02.34-.05.81-.09,1.43-.05.51-.11,1.28-.21,2.32.03.25.03.58,0,1.01-.08.29-.31.44-.69.44-.2,0-.39-.05-.58-.16-.09-.29-.14-.41-.14-.37.03-.41-.05-.97-.25-1.65-.17-.35-.4-.85-.7-1.51s-.69-1-1.18-1.05c-.61-.05-1.01.16-1.19.62-.06.2-.15.49-.25.87-.18.57-.3,1.11-.34,1.63-.02.17-.03.24-.05.21.05.31.1.61.16.92.08.38.26.67.56.87s.87.32,1.71.37c2.07.12,3.35.84,3.84,2.16.08.12.15.33.23.62h0Z"/>
      </g>
    </g>
    <path class="cls-1" d="m54.42,31.82h0c11.24,0,20.36,9.11,20.36,20.36h0c0,11.24-9.11,20.36-20.36,20.36h0c-11.24,0-20.36-9.11-20.36-20.36h0c0-11.24,9.11-20.36,20.36-20.36Z"/>
  </g>
</svg>
